<svg xmlns="http://www.w3.org/2000/svg" width="1600" height="900" viewBox="0 0 1600 900"><defs><linearGradient id="b" x2="1" y2="1"><stop stop-color="#06100e"/><stop offset=".5" stop-color="#0e2c24"/><stop offset="1" stop-color="#07110f"/></linearGradient><radialGradient id="l"><stop stop-color="#ead9aa" stop-opacity=".7"/><stop offset="1" stop-color="#ead9aa" stop-opacity="0"/></radialGradient></defs><rect width="1600" height="900" fill="url(#b)"/><circle cx="800" cy="410" r="340" fill="url(#l)" opacity=".28"/><g fill="none" stroke="#8fb5a5" stroke-width="3" opacity=".65"><path d="M220 700 C390 510 520 390 720 390 S1090 520 1380 240"/><path d="M220 240 C430 450 560 570 760 520 S1110 390 1380 690"/><circle cx="520" cy="450" r="150"/><circle cx="1080" cy="450" r="150"/></g><g fill="#0d211b" stroke="#c7a45a" stroke-width="4"><circle cx="520" cy="450" r="115"/><circle cx="1080" cy="450" r="115"/></g><g fill="#ead9aa"><circle cx="520" cy="410" r="34"/><circle cx="1080" cy="410" r="34"/></g><g fill="none" stroke="#c7a45a" stroke-width="6"><path d="M635 450h330"/><path d="M760 390l80 60-80 60"/><path d="M840 390l-80 60 80 60"/></g></svg>